#!OML:ASF Y:\EmotionMaleHayes\Project 1\Capture day 1\Session 1\Male1.ASF
:FULLY-SPECIFIED
:DEGREES
16
root -28.3041 17.1139 1.23438 47.3261 84.325 47.2841
lowerback 5.29297 1.39189 -5.35182
upperback 0.751867 1.55741 -0.376853
thorax -2.32401 0.828905 2.4988
lowerneck -22.3778 2.53741 2.19316
upperneck 20.2646 3.34117 -1.9846
head 10.2397 1.48798 -0.555484
rclavicle 2.68359e-015 -3.18055e-015
rhumerus -32.134 9.32333 -92.1628
rradius 29.2188
rwrist 5.54964
rhand -11.3053 -29.6568
rfingers 7.12502
rthumb 14.7264 -59.1137
lclavicle 2.68359e-015 -3.18055e-015
lhumerus -32.5906 -17.9174 98.1339
lradius 25.9812
lwrist -10.8508
lhand -14.3873 -25.9274
lfingers 7.12502
lthumb 11.7556 3.72268
rfemur 10.8657 -5.00954 8.03619
rtibia 2.69751
rfoot -15.9605 -3.55898
rtoes 6.40344
lfemur 13.0157 0.542615 -19.7354
ltibia -2.83105
lfoot -11.6024 10.9296
ltoes -8.49797
17
root -28.2989 17.1134 1.23048 47.2054 84.3113 47.0612
lowerback 5.19027 1.40986 -5.35803
upperback 0.740844 1.58732 -0.341221
thorax -2.28162 0.842885 2.53894
lowerneck -22.5322 2.52457 2.12983
upperneck 20.3215 3.34993 -2.01342
head 10.2879 1.48161 -0.552417
rclavicle -5.1684e-015 -2.06736e-014
rhumerus -32.1866 9.17968 -92.0272
rradius 29.1349
rwrist 5.79895
rhand -10.7796 -29.9494
rfingers 7.12502
rthumb 15.2328 -59.3686
lclavicle -5.1684e-015 -2.06736e-014
lhumerus -32.6134 -17.8494 98.2501
lradius 26.0018
lwrist -10.8398
lhand -14.0662 -25.8076
lfingers 7.12502
lthumb 12.0653 3.82461
rfemur 10.7534 -5.15446 7.99981
rtibia 2.84524
rfoot -16.0121 -3.46865
rtoes 5.64862
lfemur 12.9468 0.568698 -19.7569
ltibia -2.87156
lfoot -11.6318 10.9646
ltoes -7.68981
18
root -28.3005 17.1164 1.23048 47.7554 84.3921 47.6393
lowerback 5.30564 1.38672 -5.35979
upperback 0.760755 1.55036 -0.330775
thorax -2.32282 0.825321 2.55128
lowerneck -22.6878 2.53414 2.10204
upperneck 20.3522 3.3673 -2.00635
head 10.327 1.48627 -0.541166
rclavicle -3.2054e-015 -8.54774e-015
rhumerus -32.1805 9.08379 -92.014
rradius 29.0519
rwrist 5.91637
rhand -10.5275 -30.231
rfingers 7.12502
rthumb 15.4756 -59.6315
lclavicle -3.2054e-015 -8.54774e-015
lhumerus -32.6125 -17.9171 98.3057
lradius 26.0139
lwrist -10.627
lhand -13.9624 -25.8828
lfingers 7.12502
lthumb 12.1654 3.7435
rfemur 10.797 -5.2743 7.99398
rtibia 2.88162
rfoot -16.0224 -3.49262
rtoes 5.47147
lfemur 12.9438 0.571729 -19.7211
ltibia -2.84525
lfoot -11.6791 10.8786
ltoes -7.30588
19
root -28.3007 17.1158 1.22976 49.4931 84.3458 49.3865
lowerback 5.36942 1.35972 -5.48571
upperback 0.766494 1.50255 -0.411732
thorax -2.34953 0.803366 2.54052
lowerneck -22.7825 2.54278 2.21189
upperneck 20.3472 3.35849 -2.08693
head 10.3459 1.47962 -0.588457
rclavicle 1.99654e-014 -2.62396e-014
rhumerus -32.1853 9.01503 -92.0986
rradius 28.925
rwrist 6.01457
rhand -10.5759 -30.0593
rfingers 7.12502
rthumb 15.429 -59.4635
lclavicle 1.99654e-014 -2.62396e-014
lhumerus -32.6873 -17.9259 98.2523
lradius 26.0553
lwrist -10.5907
lhand -15.2552 -25.8404
lfingers 7.12502
lthumb 10.9186 3.8557
rfemur 10.8467 -5.36306 7.77608
rtibia 2.82913
rfoot -15.9699 -3.55766
rtoes 5.53578
lfemur 12.8764 0.565766 -19.8951
ltibia -2.72285
lfoot -11.7233 10.7887
ltoes -6.13137
20
root -28.2977 17.1142 1.22873 50.9897 84.153 50.848
lowerback 5.30128 1.38147 -5.73457
upperback 0.766858 1.52112 -0.489303
thorax -2.31683 0.814137 2.59961
lowerneck -22.7927 2.53567 2.28231
upperneck 20.2789 3.33971 -2.16096
head 10.3253 1.46711 -0.62945
rclavicle -5.479e-015 -9.93923e-016
rhumerus -32.2688 8.98769 -92.1283
rradius 28.8333
rwrist 6.05851
rhand -10.7568 -29.7304
rfingers 7.12502
rthumb 15.2548 -59.1479
lclavicle -5.479e-015 -9.93923e-016
lhumerus -32.7138 -17.7918 98.2201
lradius 25.9253
lwrist -10.8558
lhand -14.6037 -26.6243
lfingers 7.12502
lthumb 11.5469 3.03763
rfemur 10.8532 -5.20156 7.52793
rtibia 2.64967
rfoot -15.9754 -3.57335
rtoes 6.80764
lfemur 12.7694 0.704605 -20.1588
ltibia -2.57284
lfoot -11.7186 10.6659
ltoes -8.20152
21
root -28.2996 17.1122 1.22855 51.2132 84.1723 51.0279
lowerback 5.31066 1.37797 -5.77465
upperback 0.748448 1.51304 -0.463397
thorax -2.34218 0.811399 2.64901
lowerneck -22.7958 2.53027 2.19447
upperneck 20.2062 3.34305 -2.0976
head 10.2967 1.46939 -0.592163
rclavicle -1.2188e-014 1.39149e-014
rhumerus -32.4719 9.27563 -92.2717
rradius 28.9675
rwrist 5.98456
rhand -10.9681 -30.3052
rfingers 7.12502
rthumb 15.0512 -59.7381
lclavicle -1.2188e-014 1.39149e-014
lhumerus -32.632 -17.6618 98.2281
lradius 25.847
lwrist -10.6467
lhand -15.3589 -26.4438
lfingers 7.12502
lthumb 10.8186 3.25754
rfemur 10.7931 -5.07546 7.59773
rtibia 2.72226
rfoot -16.1369 -3.75089
rtoes 6.10322
lfemur 12.6482 0.651593 -20.164
ltibia -2.4673
lfoot -11.6585 10.7189
ltoes -7.37541
